<svg width="240" height="55" viewBox="0 0 240 55" fill="none" xmlns="http://www.w3.org/2000/svg">
<path d="M76.3457 28.9805V39H72.9707V13.4062H82.4102C85.2109 13.4062 87.4023 14.1211 88.9844 15.5508C90.5781 16.9805 91.375 18.873 91.375 21.2285C91.375 23.7129 90.5957 25.6289 89.0371 26.9766C87.4902 28.3125 85.2695 28.9805 82.375 28.9805H76.3457ZM76.3457 26.2207H82.4102C84.2148 26.2207 85.5977 25.7988 86.5586 24.9551C87.5195 24.0996 88 22.8691 88 21.2637C88 19.7402 87.5195 18.5215 86.5586 17.6074C85.5977 16.6934 84.2793 16.2188 82.6035 16.1836H76.3457V26.2207ZM98.7051 39H95.4531V19.9805H98.7051V39ZM95.1895 14.9355C95.1895 14.4082 95.3477 13.9629 95.6641 13.5996C95.9922 13.2363 96.4727 13.0547 97.1055 13.0547C97.7383 13.0547 98.2188 13.2363 98.5469 13.5996C98.875 13.9629 99.0391 14.4082 99.0391 14.9355C99.0391 15.4629 98.875 15.9023 98.5469 16.2539C98.2188 16.6055 97.7383 16.7812 97.1055 16.7812C96.4727 16.7812 95.9922 16.6055 95.6641 16.2539C95.3477 15.9023 95.1895 15.4629 95.1895 14.9355ZM106.984 36.3457H118.111V39H103.012V36.6094L113.506 22.6699H103.17V19.9805H117.584V22.2832L106.984 36.3457ZM124.844 36.3457H135.971V39H120.871V36.6094L131.365 22.6699H121.029V19.9805H135.443V22.2832L124.844 36.3457ZM151.387 39C151.199 38.625 151.047 37.957 150.93 36.9961C149.418 38.5664 147.613 39.3516 145.516 39.3516C143.641 39.3516 142.1 38.8242 140.893 37.7695C139.697 36.7031 139.1 35.3555 139.1 33.7266C139.1 31.7461 139.85 30.2109 141.35 29.1211C142.861 28.0195 144.982 27.4688 147.713 27.4688H150.877V25.9746C150.877 24.8379 150.537 23.9355 149.857 23.2676C149.178 22.5879 148.176 22.248 146.852 22.248C145.691 22.248 144.719 22.541 143.934 23.127C143.148 23.7129 142.756 24.4219 142.756 25.2539H139.486C139.486 24.3047 139.82 23.3906 140.488 22.5117C141.168 21.6211 142.082 20.918 143.23 20.4023C144.391 19.8867 145.662 19.6289 147.045 19.6289C149.236 19.6289 150.953 20.1797 152.195 21.2812C153.438 22.3711 154.082 23.877 154.129 25.7988V34.5527C154.129 36.2988 154.352 37.6875 154.797 38.7188V39H151.387ZM145.99 36.5215C147.01 36.5215 147.977 36.2578 148.891 35.7305C149.805 35.2031 150.467 34.5176 150.877 33.6738V29.7715H148.328C144.344 29.7715 142.352 30.9375 142.352 33.2695C142.352 34.2891 142.691 35.0859 143.371 35.6602C144.051 36.2344 144.924 36.5215 145.99 36.5215Z" fill="black"/>
<path d="M179.406 39H176.014L163.129 19.2773V39H159.736V13.4062H163.129L176.049 33.2168V13.4062H179.406V39ZM188.424 39H185.172V19.9805H188.424V39ZM184.908 14.9355C184.908 14.4082 185.066 13.9629 185.383 13.5996C185.711 13.2363 186.191 13.0547 186.824 13.0547C187.457 13.0547 187.938 13.2363 188.266 13.5996C188.594 13.9629 188.758 14.4082 188.758 14.9355C188.758 15.4629 188.594 15.9023 188.266 16.2539C187.938 16.6055 187.457 16.7812 186.824 16.7812C186.191 16.7812 185.711 16.6055 185.383 16.2539C185.066 15.9023 184.908 15.4629 184.908 14.9355ZM196.721 19.9805L196.826 22.3711C198.279 20.543 200.178 19.6289 202.521 19.6289C206.541 19.6289 208.568 21.8965 208.604 26.4316V39H205.352V26.4141C205.34 25.043 205.023 24.0293 204.402 23.373C203.793 22.7168 202.838 22.3887 201.537 22.3887C200.482 22.3887 199.557 22.6699 198.76 23.2324C197.963 23.7949 197.342 24.5332 196.896 25.4473V39H193.645V19.9805H196.721ZM216.865 19.9805V41.1973C216.865 44.8535 215.207 46.6816 211.891 46.6816C211.176 46.6816 210.514 46.5762 209.904 46.3652V43.7637C210.279 43.8574 210.771 43.9043 211.381 43.9043C212.107 43.9043 212.658 43.7051 213.033 43.3066C213.42 42.9199 213.613 42.2402 213.613 41.2676V19.9805H216.865ZM213.279 14.9355C213.279 14.4199 213.438 13.9805 213.754 13.6172C214.082 13.2422 214.557 13.0547 215.178 13.0547C215.811 13.0547 216.291 13.2363 216.619 13.5996C216.947 13.9629 217.111 14.4082 217.111 14.9355C217.111 15.4629 216.947 15.9023 216.619 16.2539C216.291 16.6055 215.811 16.7812 215.178 16.7812C214.545 16.7812 214.07 16.6055 213.754 16.2539C213.438 15.9023 213.279 15.4629 213.279 14.9355ZM233.863 39C233.676 38.625 233.523 37.957 233.406 36.9961C231.895 38.5664 230.09 39.3516 227.992 39.3516C226.117 39.3516 224.576 38.8242 223.369 37.7695C222.174 36.7031 221.576 35.3555 221.576 33.7266C221.576 31.7461 222.326 30.2109 223.826 29.1211C225.338 28.0195 227.459 27.4688 230.189 27.4688H233.354V25.9746C233.354 24.8379 233.014 23.9355 232.334 23.2676C231.654 22.5879 230.652 22.248 229.328 22.248C228.168 22.248 227.195 22.541 226.41 23.127C225.625 23.7129 225.232 24.4219 225.232 25.2539H221.963C221.963 24.3047 222.297 23.3906 222.965 22.5117C223.645 21.6211 224.559 20.918 225.707 20.4023C226.867 19.8867 228.139 19.6289 229.521 19.6289C231.713 19.6289 233.43 20.1797 234.672 21.2812C235.914 22.3711 236.559 23.877 236.605 25.7988V34.5527C236.605 36.2988 236.828 37.6875 237.273 38.7188V39H233.863ZM228.467 36.5215C229.486 36.5215 230.453 36.2578 231.367 35.7305C232.281 35.2031 232.943 34.5176 233.354 33.6738V29.7715H230.805C226.82 29.7715 224.828 30.9375 224.828 33.2695C224.828 34.2891 225.168 35.0859 225.848 35.6602C226.527 36.2344 227.4 36.5215 228.467 36.5215Z" fill="#F19C1C"/>
<g clip-path="url(#clip0)">
<path d="M41.4946 12.013C41.8745 12.2658 42.3818 12.2483 42.7446 11.9722C43.0863 11.7121 43.2385 11.2561 43.1279 10.8424C43.0093 10.3989 42.6073 10.073 42.1489 10.0482C41.6927 10.0234 41.2609 10.301 41.0928 10.7252C40.9097 11.1875 41.0766 11.7391 41.4946 12.013Z" fill="#F19C1C"/>
<path d="M46.1748 14.1539C45.8163 13.6814 45.1426 13.5885 44.6698 13.9474C44.1972 14.3058 44.1046 14.9797 44.4632 15.4524C48.7094 21.0504 51.0259 27.6845 51.1866 34.6844L47.0149 36.0082C46.5732 32.8402 45.8653 29.8857 44.9057 27.2093C44.9056 27.2091 44.9056 27.2088 44.9054 27.2086C43.928 24.4797 42.6639 21.9712 41.1479 19.7525C41.1473 19.7518 41.1469 19.7511 41.1465 19.7504C36.0578 12.3033 27.9591 7.77547 17.0615 6.28038L18.3904 2.15713C25.428 2.31418 32.1013 4.59967 37.7364 8.79093C37.929 8.93412 38.1537 9.0033 38.3766 9.0033C38.7047 9.0033 39.0285 8.85344 39.2394 8.57007C39.5935 8.09398 39.4945 7.4212 39.0184 7.06703C32.8026 2.44373 25.3998 0 17.6109 0C17.1446 0 16.7314 0.300887 16.5885 0.744752L8.3385 26.343L5.49012 35.18C5.4883 35.1857 5.48658 35.1915 5.48486 35.1972L1.83275 46.5291C1.41284 47.8337 1.7539 49.2486 2.72284 50.2217C3.70156 51.2045 5.13273 51.5542 6.45809 51.1335L22.1609 46.1499V50.4536C22.1609 52.8942 24.1236 54.9329 26.5361 54.9983C26.5785 54.9995 26.621 55.0001 26.6633 55.0001C27.8477 55.0001 28.9611 54.5494 29.8102 53.7229C30.6824 52.8739 31.1629 51.738 31.1629 50.5246V43.2928L36.8058 41.5019V46.3738C36.8058 48.4605 38.5136 50.1581 40.6128 50.1581C41.627 50.1581 42.5815 49.7657 43.3013 49.0521C44.0218 48.3361 44.4186 47.3849 44.4186 46.3736V39.0858L52.5947 36.4913C53.0409 36.3498 53.344 35.9355 53.344 35.4675C53.344 27.7072 50.865 20.337 46.1748 14.1539ZM39.815 21.6308C40.8978 23.319 41.8318 25.1776 42.6009 27.1741C42.152 27.4166 41.6464 27.5459 41.1272 27.5459C39.4165 27.5459 38.0249 26.1543 38.0249 24.4436C38.0249 23.2245 38.7468 22.1322 39.815 21.6308ZM11.1047 33.5111C10.2418 34.3674 9.07745 34.7872 7.90151 34.7026L10.3368 27.1466C10.6142 27.315 10.8722 27.5163 11.1038 27.746C11.8807 28.5169 12.3085 29.541 12.3085 30.6296C12.3084 31.7175 11.8809 32.7409 11.1047 33.5111ZM7.5872 48.5207C7.60256 46.8445 8.97089 45.4853 10.6507 45.4853C11.6516 45.4853 12.5715 45.9788 13.137 46.7595L7.5872 48.5207ZM25.0081 42.424C23.4377 43.9826 20.8825 43.9824 19.3121 42.424C18.5539 41.6717 18.1366 40.6722 18.1366 39.6095C18.1366 38.5467 18.5541 37.5473 19.3121 36.7949C20.0974 36.0157 21.1287 35.626 22.1602 35.626C23.1916 35.626 24.223 36.0157 25.0082 36.7949C25.7663 37.5472 26.1838 38.5468 26.1838 39.6095C26.1836 40.6722 25.7662 41.6718 25.0081 42.424ZM43.0193 37.2761C42.5732 37.4178 42.2702 37.832 42.2702 38.3V46.3738C42.2702 46.8085 42.0985 47.2184 41.7879 47.5272C41.474 47.8383 41.0567 48.0097 40.6128 48.0097C39.6982 48.0097 38.9542 47.2758 38.9542 46.3738V40.0337C38.9542 39.6912 38.7907 39.3692 38.5143 39.1669C38.2379 38.9646 37.8815 38.9063 37.5549 39.0099L29.7637 41.4829C29.3176 41.6244 29.0144 42.0387 29.0144 42.5067V50.5246C29.0144 51.1532 28.7649 51.7422 28.3117 52.1832C27.8515 52.6311 27.2443 52.8697 26.5943 52.8507C25.3344 52.8166 24.3094 51.7413 24.3094 50.4536V45.3577C25.1168 45.0612 25.8739 44.5916 26.5215 43.949C26.5215 43.949 26.5215 43.949 26.5215 43.9489C27.689 42.7903 28.3321 41.2491 28.3321 39.6094C28.3321 37.9697 27.689 36.4286 26.5215 35.2699C24.1166 32.8834 20.2037 32.8833 17.7988 35.2698C16.6311 36.4285 15.9882 37.9698 15.9882 39.6094C15.9882 41.2491 16.6311 42.7903 17.7988 43.9489C18.174 44.3213 18.586 44.6356 19.0231 44.8918L15.2465 46.0904C14.3526 44.4278 12.5912 43.3371 10.6507 43.3371C7.7768 43.3371 5.43867 45.6753 5.43867 48.5492C5.43867 48.7525 5.45038 48.9544 5.47358 49.1547C5.02048 49.1981 4.57822 49.0405 4.24522 48.706C3.84013 48.2991 3.70274 47.7315 3.87773 47.1878L7.22959 36.7876C7.5539 36.8382 7.87896 36.8633 8.20251 36.8633C9.83187 36.8633 11.4172 36.2281 12.6181 35.0364C13.8038 33.8597 14.4568 32.2947 14.4568 30.6298C14.4568 28.9642 13.8035 27.3985 12.6171 26.2213C12.1449 25.7526 11.5996 25.3621 11.0076 25.0651L16.3919 8.35877C26.2928 9.64374 33.7444 13.5069 38.574 19.8559C36.95 20.7661 35.8764 22.5109 35.8764 24.4439C35.8764 27.3391 38.2319 29.6947 41.1271 29.6947C41.8897 29.6947 42.635 29.5296 43.3156 29.2175C44.0421 31.514 44.5854 34.0109 44.9363 36.6676L43.0193 37.2761Z" fill="#F19C1C"/>
<path d="M28.9791 18.1896C28.9791 16.4622 28.3016 14.8386 27.0715 13.6178C24.5376 11.1034 20.4147 11.1034 17.8808 13.6178C16.6507 14.8385 15.9732 16.4621 15.9732 18.1896C15.9732 19.9171 16.6507 21.5407 17.8808 22.7615C19.1477 24.0187 20.8119 24.6473 22.4761 24.6473C24.1403 24.6473 25.8045 24.0187 27.0714 22.7615C28.3016 21.5407 28.9791 19.9171 28.9791 18.1896ZM25.5581 21.2363C23.8587 22.9228 21.0936 22.9228 19.3942 21.2363C18.5735 20.4221 18.1216 19.3401 18.1216 18.1896C18.1216 17.0392 18.5735 15.9572 19.3942 15.1429C20.2439 14.2997 21.36 13.8782 22.4761 13.8782C23.5923 13.8782 24.7083 14.2998 25.558 15.1429C26.3787 15.9572 26.8306 17.0392 26.8306 18.1896C26.8307 19.3401 26.3788 20.4221 25.5581 21.2363Z" fill="#F19C1C"/>
<path d="M33.1779 27.4085C30.9929 25.152 27.368 25.105 25.0972 27.3035C24.8925 27.5018 24.7749 27.7731 24.7703 28.0579C24.7658 28.3427 24.8745 28.6178 25.0727 28.8224L31.5034 35.4637C31.714 35.6813 31.9944 35.7907 32.2752 35.7907C32.5443 35.7907 32.8138 35.6901 33.0223 35.4883C35.293 33.2897 35.3628 29.6652 33.1779 27.4085ZM32.1864 33.0807L27.4766 28.2168C28.8354 27.5315 30.5312 27.7638 31.6343 28.9031C32.7376 30.0424 32.915 31.7447 32.1864 33.0807Z" fill="#F19C1C"/>
</g>
<defs>
<clipPath id="clip0">
<rect width="55" height="55" fill="white"/>
</clipPath>
</defs>
</svg>
