<svg width="60" height="60" viewBox="0 0 60 60" fill="none" xmlns="http://www.w3.org/2000/svg">
<g clip-path="url(#clip0)">
<path d="M29.7999 58.6765C27.7098 58.6765 25.6208 58.2552 23.6862 57.4138L14.4356 53.3924C11.0889 51.9367 7.5504 51.0148 3.91842 50.6517L0.880585 50.3479C0.380433 50.2981 3.8147e-06 49.8774 3.8147e-06 49.375V39.8458C3.8147e-06 39.6343 0.0688167 39.4285 0.195813 39.2595C0.422951 38.9557 5.86756 31.8428 14.1844 33.6935C18.862 34.733 22.6282 36.6782 24.964 38.1272C26.6597 39.1789 28.6474 39.7345 30.7124 39.7345H39.9629C41.5574 39.7345 42.9588 40.5781 43.7426 41.8436L51.7098 32.6647C53.2544 30.602 55.7815 29.3387 58.4272 29.3387H59.0224C59.353 29.3387 59.6607 29.5054 59.8409 29.7818C60.0216 30.0582 60.0501 30.4078 59.9175 30.7099L52.7118 47.0863C51.1363 50.6679 47.9284 53.3734 44.1314 54.3228L42.8637 54.6395L35.489 57.5895C33.6741 58.3151 31.7367 58.6765 29.7999 58.6765ZM1.95586 48.4899L4.11311 48.7059C7.94705 49.0891 11.6825 50.0631 15.216 51.5994L24.466 55.6207C27.7187 57.035 31.4699 57.0904 34.7634 55.7729L42.1985 52.7989C42.2399 52.7826 42.2819 52.7692 42.3249 52.7586L43.657 52.4251C46.8722 51.6212 49.5883 49.3308 50.9215 46.2986L57.494 31.3617C55.8111 31.6095 54.2626 32.5164 53.2309 33.8916L44.405 44.0635C44.4061 44.1016 44.4067 44.1391 44.4067 44.1777C44.4067 46.6275 42.4133 48.6209 39.9635 48.6209H27.0569C25.3791 48.6209 23.7209 48.8899 22.1292 49.4203L21.77 48.5084L21.4663 47.5791L21.516 47.5629C23.3024 46.9677 25.1682 46.665 27.0569 46.665H39.9635C41.3347 46.665 42.4514 45.5489 42.4514 44.1771C42.4514 42.8053 41.3353 41.6892 39.9635 41.6892H30.7129C28.2832 41.6892 25.9391 41.0319 23.934 39.7882C21.7275 38.4192 18.1705 36.5825 13.7615 35.6018C7.46312 34.2048 2.93098 39.0385 1.95641 40.1916V48.4899H1.95586Z" fill="black"/>
<path d="M38.5072 29.1177C37.0034 29.1177 35.3172 28.6534 33.461 27.7252C33.2361 27.6122 33.0626 27.4164 32.9776 27.1798C32.9021 26.9677 31.1549 21.9422 33.9315 18.2257C35.9494 15.5241 39.7436 14.3073 45.2151 14.6122C45.7141 14.6396 46.1119 15.0396 46.1365 15.5398C46.1561 15.928 46.5595 25.0925 41.8863 28.1437C40.8927 28.7932 39.7638 29.1177 38.5072 29.1177ZM34.708 26.156C37.2764 27.3605 39.3296 27.4785 40.8178 26.5068C43.5887 24.6969 44.1879 19.3245 44.2025 16.5283C39.9154 16.4237 36.9967 17.3899 35.4979 19.3955C33.7144 21.7838 34.4075 25.069 34.708 26.156Z" fill="black"/>
<path d="M23.5541 16.3068C21.8204 16.3068 19.8203 15.9353 18.0748 14.657C15.1142 12.4874 13.7536 8.35697 14.03 2.38088C14.0535 1.88129 14.4496 1.4796 14.9492 1.44995C15.3721 1.42589 25.383 0.891616 28.7515 5.94796C30.3202 8.30158 30.1915 11.3842 28.3705 15.1118C28.2597 15.3384 28.0661 15.5135 27.8295 15.6002C27.698 15.6489 25.8624 16.3068 23.5541 16.3068ZM27.4921 14.6827H27.5016H27.4921ZM15.9545 3.37391C15.87 8.1606 16.9705 11.4233 19.2301 13.0793C21.9356 15.0615 25.6297 14.2189 26.7911 13.8805C28.1198 10.997 28.2323 8.69488 27.1246 7.03218C25.0658 3.94176 19.0282 3.33755 15.9545 3.37391Z" fill="black"/>
<path d="M31.1901 41.3457C31.1594 41.3457 31.1286 41.344 31.0973 41.3412C30.5764 41.292 30.1865 40.8416 30.2128 40.3186C30.2704 39.1683 30.3688 38.0774 30.5026 37.0435C30.9093 30.1242 30.6995 14.0108 20.5118 9.55306C20.0173 9.33655 19.7912 8.76031 20.0078 8.26519C20.2237 7.7712 20.8016 7.54574 21.2956 7.76169C27.2991 10.3883 31.076 16.9278 32.2156 26.6729C32.318 27.5462 32.3946 28.4072 32.4517 29.2458C35.1348 22.4658 39.2395 20.0702 39.484 19.9332C39.954 19.6674 40.5504 19.8364 40.8155 20.3058C41.079 20.7757 40.9134 21.3704 40.4452 21.6356C40.3417 21.696 34.0473 25.4734 32.4674 37.1224C32.3471 39.1152 32.1736 40.3857 32.1574 40.5021C32.0897 40.9899 31.6729 41.3457 31.1901 41.3457Z" fill="black"/>
</g>
<defs>
<clipPath id="clip0">
<rect width="60" height="60" fill="white"/>
</clipPath>
</defs>
</svg>
