<svg width="60" height="60" viewBox="0 0 60 60" fill="none" xmlns="http://www.w3.org/2000/svg">
<path d="M30 60C13.4575 60 0 46.5425 0 30C0 13.4575 13.4575 0 30 0C46.5425 0 60 13.4575 60 30C60 35.2625 58.61 40.4425 55.9825 44.9775C55.635 45.5725 54.87 45.7775 54.2725 45.4325C53.675 45.085 53.4725 44.3225 53.8175 43.7225C56.2275 39.57 57.5 34.8225 57.5 30C57.5 14.8375 45.1625 2.5 30 2.5C14.8375 2.5 2.5 14.8375 2.5 30C2.5 45.1625 14.8375 57.5 30 57.5C35.81 57.5 41.35 55.715 46.0175 52.3375C46.575 51.9325 47.355 52.0575 47.7625 52.6175C48.1675 53.1775 48.04 53.9575 47.4825 54.3625C42.385 58.05 36.34 60 30 60Z" fill="black"/>
<path d="M30 52.5C20.0775 52.5 11.43 46.1175 8.48253 36.62C8.27753 35.96 8.64503 35.26 9.30503 35.055C9.97753 34.855 10.665 35.22 10.87 35.8775C13.49 44.325 21.1775 50 30 50C38.8225 50 46.51 44.325 49.13 35.88C49.335 35.2225 50.0275 34.8575 50.695 35.0575C51.355 35.2625 51.7225 35.9625 51.5175 36.6225C48.57 46.1175 39.9225 52.5 30 52.5Z" fill="black"/>
<path d="M17.5 27.5C14.7425 27.5 12.5 25.2575 12.5 22.5C12.5 19.7425 14.7425 17.5 17.5 17.5C20.2575 17.5 22.5 19.7425 22.5 22.5C22.5 25.2575 20.2575 27.5 17.5 27.5ZM17.5 20C16.1225 20 15 21.1225 15 22.5C15 23.8775 16.1225 25 17.5 25C18.8775 25 20 23.8775 20 22.5C20 21.1225 18.8775 20 17.5 20Z" fill="black"/>
<path d="M42.5 27.5C39.7425 27.5 37.5 25.2575 37.5 22.5C37.5 19.7425 39.7425 17.5 42.5 17.5C45.2575 17.5 47.5 19.7425 47.5 22.5C47.5 25.2575 45.2575 27.5 42.5 27.5ZM42.5 20C41.1225 20 40 21.1225 40 22.5C40 23.8775 41.1225 25 42.5 25C43.8775 25 45 23.8775 45 22.5C45 21.1225 43.8775 20 42.5 20Z" fill="black"/>
<path d="M49.7375 55.3625C47.7275 55.3625 45.845 54.58 44.435 53.155L40.24 48.96C39.7525 48.4725 39.7525 47.68 40.24 47.1925C40.7275 46.705 41.52 46.705 42.0075 47.1925L46.2075 51.3925C48.09 53.2925 51.3875 53.2875 53.26 51.3975C54.215 50.4525 54.735 49.2 54.735 47.8625C54.735 46.525 54.215 45.275 53.27 44.3375L48.5125 39.555C48.025 39.065 48.0275 38.275 48.5175 37.7875C49.0025 37.2975 49.7975 37.3025 50.285 37.7925L55.035 42.5675C56.4525 43.97 57.235 45.8525 57.235 47.8625C57.235 49.8725 56.4525 51.755 55.0275 53.165C53.63 54.58 51.7475 55.3625 49.7375 55.3625Z" fill="black"/>
<path d="M49.775 49.15C49.455 49.15 49.135 49.0275 48.89 48.785L45.04 44.935C44.5525 44.4475 44.5525 43.655 45.04 43.1675C45.5275 42.68 46.32 42.68 46.8075 43.1675L50.6575 47.0175C51.145 47.505 51.145 48.2975 50.6575 48.785C50.415 49.0275 50.095 49.15 49.775 49.15Z" fill="black"/>
</svg>
